<?xml version="1.0" encoding="UTF-8"?>
<svg id="Outlines" xmlns="http://www.w3.org/2000/svg" viewBox="0 0 1000 800.68">
  <defs>
    <style>
      .cls-1 {
        fill: #fff;
      }

      .cls-2 {
        fill: #114c97;
      }

      .cls-3 {
        fill: #19bfd1;
      }
    </style>
  </defs>
  <g id="Variation1">
    <g>
      <ellipse class="cls-3" cx="500" cy="400.34" rx="338.38" ry="469.33" transform="translate(28.46 833.84) rotate(-81.28)"/>
      <ellipse class="cls-2" cx="500" cy="400.34" rx="439.11" ry="316.59"/>
      <g>
        <path class="cls-1" d="M171.34,429.84v-95.32h48.39c10.06,0,17.39,2.54,22,7.61,4.61,5.07,6.91,10.87,6.91,17.39,0,4.75-1.34,9.04-4.02,12.88-2.68,3.84-6.67,6.48-11.98,7.93,12.34,2.98,18.51,10.38,18.51,22.21,0,7.08-2.18,13.4-6.53,18.96-4.35,5.56-13.65,8.34-27.9,8.34h-45.39ZM198.29,371.04h13.55c3.4,0,5.8-.86,7.19-2.58,1.4-1.72,2.1-3.56,2.1-5.52,0-5.31-3.26-7.96-9.78-7.96h-13.06v16.06ZM198.29,408.61h14.25c3.54,0,6.13-.87,7.79-2.62,1.65-1.75,2.48-3.71,2.48-5.9s-.8-4.2-2.41-6.04c-1.61-1.84-4.55-2.76-8.83-2.76h-13.27v17.32Z"/>
        <path class="cls-1" d="M348.08,429.84h-32.44l-13.92-36.45h-9.23v36.45h-29.26v-95.32h49.79c10.99,0,19.52,2.57,25.59,7.72,6.08,5.14,9.11,11.93,9.11,20.36,0,5.49-1.12,10.35-3.35,14.56-2.23,4.21-6.75,7.93-13.55,11.14l17.25,41.55ZM292.49,372.99h12.5c3.68,0,6.63-.77,8.87-2.3,2.23-1.54,3.35-3.79,3.35-6.77,0-6.1-3.75-9.15-11.24-9.15h-13.48v18.23Z"/>
        <path class="cls-1" d="M414.47,429.84l-5.39-18.78h-25.54l-5.72,18.78h-23.75l29.43-95.32h30.94l29.9,95.32h-29.86ZM388.52,390.24h15.42l-7.71-27.65-7.71,27.65Z"/>
        <path class="cls-1" d="M534.6,429.84h-23.81l-26.11-42.12c-3.35-5.4-6.73-11.96-10.14-19.68,1.54,6.15,2.3,11.36,2.3,15.64v46.16h-23.74v-95.32h27.65l22.21,34.91c4.42,6.94,7.77,13.04,10.05,18.3-1.49-8.15-2.23-16.48-2.23-25v-28.21h23.81v95.32Z"/>
        <path class="cls-1" d="M551.22,429.84v-95.32h36.87c16.01,0,28,4.75,35.96,14.25,7.96,9.5,11.94,20.48,11.94,32.96,0,14.25-4.27,25.83-12.81,34.74-8.54,8.92-19.63,13.37-33.27,13.37h-38.69ZM580.48,407.91h7.61c4.84,0,8.93-2.35,12.26-7.05,3.33-4.7,4.99-11.1,4.99-19.2,0-6.94-1.48-12.92-4.43-17.95-2.96-5.03-7.23-7.54-12.81-7.54h-7.61v51.75Z"/>
        <path class="cls-1" d="M689.55,431.3c-13.41,0-24.34-4.44-32.79-13.34-8.45-8.89-12.67-20.79-12.67-35.68s4.04-26.01,12.12-35.3c8.08-9.29,19.28-13.93,33.62-13.93,13.27,0,24.08,4.38,32.44,13.13,8.36,8.75,12.53,20.44,12.53,35.06s-4.21,27.26-12.64,36.38c-8.43,9.12-19.3,13.69-32.61,13.69ZM689.41,409.65c4.93,0,8.49-2.15,10.65-6.46,2.17-4.31,3.25-12.19,3.25-23.64,0-16.57-4.45-24.86-13.34-24.86-9.59,0-14.39,9.45-14.39,28.35,0,17.74,4.61,26.61,13.83,26.61Z"/>
        <path class="cls-1" d="M828.66,429.84h-23.81l-26.11-42.12c-3.35-5.4-6.73-11.96-10.14-19.68,1.54,6.15,2.3,11.36,2.3,15.64v46.16h-23.74v-95.32h27.65l22.21,34.91c4.42,6.94,7.77,13.04,10.05,18.3-1.49-8.15-2.23-16.48-2.23-25v-28.21h23.81v95.32Z"/>
      </g>
      <path class="cls-1" d="M771.69,538.13c-.15-.77-.7-1.81-2.54-2.43-4.71-1.63-19.77-.75-31.98.92-.69-1.71-1.47-3.45-2.23-5.13-1.92-4.26-3.91-8.66-4.4-12.77-.7-8.39,8-17.85,15.62-19.71,1.76-.44,2.31-1.39,2.47-2.11.26-1.18-.41-2.47-1.87-3.64-2.61-2.09-7.26-3.43-10.7-1.83-8.29,3.55-15.87,10.36-17.6,15.76-.75,1.86-1.15,3.76-1.2,5.63l-4.08,5.64c-4.37,6.05-9.32,12.9-13.82,19.03-3.65,4.48-7.41,8.84-10.87,12.62-1.75.83-2.87,1.49-3.99,2.61-1.09,1.09-1.83,2.37-2.2,3.8-7.12,6.93-8.87,6.67-8.98,6.64-.82-.14-1.33-.58-1.67-1.44-2.73-6.92,8.82-32.05,17.32-43.27,2.6-3.32,3.49-6.04,2.72-8.34-1.04-3.08-4.84-4.44-8.42-5.37-2.41-.6-8.19-.43-12.41-.3-.32,0-.63.02-.92.03,2.78-5,6.3-13.4,6.82-16.56.4-2.54-1.46-5.05-3.34-6.55-1.68-1.34-4.19-2.49-6.17-1.7-5.19,2.03-13.65,19.15-11.55,25.66.19,1,.73,1.85,1.6,2.54-2.43,4.31-6.77,10.92-11.1,17.42-.68.88-1.44,1.86-2.25,2.92-9.32,12.14-28.69,37.39-43.44,35.67-5.62-.68-7.43-6.05-7.28-10.4.17-2.77.84-5.79,1.97-9,5.01-2.08,41.32-17.56,43.23-29.78.69-4.31-2.34-9.81-7.54-13.69-6.3-4.7-13.81-5.71-20.1-2.7-11.26,5.36-24.26,21.6-29.68,37.04-10.74,13.97-23.34,26.61-27.56,27.63-1.7.39-2.83.25-3.36-.43-3.05-3.89,6.14-22.16,12.22-34.25,2.78-5.52,5.17-10.29,6.54-13.7,1.45-3.7.8-7.28-1.83-10.09-3.31-3.54-9.22-5-14.04-3.47-10.44,3.26-28.6,24.65-39.27,38.15,5.51-10.99,12.68-25.88,13.16-29.92.4-3.19-2.59-5.77-5.54-6.82-2.93-1.04-5.53-.59-6.63,1.16l-.12.19-.05.22c-.93,4.35-7.69,18.75-9.99,23.62-8.5,12.32-26.98,34.63-33.8,35.5-1.64.23-2.32-.41-2.69-.9-1.95-2.6-.92-9.78,2.5-17.41l.78-1.6c3.82-7.8,5.1-10.43,7.63-13.8,1.47-1.84,1-4.59-1.22-7.56,3.82-1.55,9.42-5.84,11.46-10.26.86-2.26.08-4.98-2.2-7.65-4.42-5.17-13.99-9.68-21.19-8.16-8.09,1.76-19.23,5.84-33.79,21.97-5.34,5.94-10.07,12.89-13.68,20.11-15.14,18.55-26.86,27.05-35.85,26.01-5.62-.68-7.43-6.05-7.28-10.4.17-2.77.84-5.79,1.97-9,5.01-2.08,41.31-17.56,43.23-29.78.69-4.31-2.35-9.81-7.54-13.69-6.3-4.7-13.81-5.71-20.09-2.7-10.7,5.1-23.46,20.67-29.12,35.52-10.27,13.63-24.03,29.27-28.44,30.86-1.41.51-2.38.48-2.88-.07-3.13-3.5,3.51-23.71,16.52-50.31,6.78-13.92,12.2-24.29,16.16-31.87,4.26-8.15,6.83-13.06,7.73-15.97.83-2.92-2.43-5.94-6.07-7.19-3.54-1.21-6.46-.38-7.46,2.1l-.1.25v.27c.13,2.89-5.52,13.02-12.06,24.75-3,5.39-6.4,11.5-9.75,17.78-4.8,9.05-8.79,17.2-11.86,24.2-20.6,26.34-48.07,53.69-63.53,51.63-5.2-.69-9.29-3.75-11.81-8.83-3.08-6.21-7.94-24.73,13.47-62.44,16.11-27.67,38.29-49.14,52.78-51.11,2.57.01,4.64.72,6.11,2.05,1.12,1.12,2.01,6.23-13.98,29.33l-.47.68c-2.49,3.4-1.27,5.17-.63,5.78,1.6,1.52,4.89.97,7.65-1.29.56-.47,1.2-.97,1.89-1.53,4.77-3.8,12.75-10.16,18.9-21.96,1.68-3.42,1.29-7.09-1.13-10.6-5.11-7.42-18.76-12.93-26.34-12.22-14.13,1.21-45.92,27.05-65.58,66.38-15.17,30.85-16.01,52.46-2.49,64.21,6.65,5.75,16.22,9.99,26.29,9.99,5.4,0,10.94-1.22,16.24-4.07,12.01-6.48,26.97-22.91,34.48-31.69-.58,3.36-.71,6.27-.4,8.81.64,4.39,3.56,8.06,8.23,10.36,5.3,2.61,11.94,2.94,15.72.81,5.66-2.89,14.94-14.22,19.73-20.39.2,1.98.61,3.84,1.22,5.56,2.03,5.66,7.02,10.39,13.71,13,7.49,2.92,15.89,2.76,21.92-.4,4.62-2.45,9.57-6.33,14.74-11.55.02.68.09,1.32.19,1.91.74,4.34,4.88,7.92,8.5,9.82,3.9,2.04,7.78,2.54,10.41,1.32,6.67-3.33,16.26-13.62,22.65-21.69-1.19,5.92-.87,12.1,1.78,14.75,7.84,7.84,16.4,9.21,24.11,3.87,2.56-1.77,5.61-4.6,9.11-8.46-.19.46-.32.82-.41,1.09-.77,2.39.44,4.85,3.23,6.6,3.74,2.34,9.76,2.96,12.97-.1l.21-.2.1-.27c2.24-6.11,40-54.25,48.85-55.18-.22,1.68-2.92,6.58-5.31,10.94-5.3,9.65-12.56,22.88-13.21,33.5-.27,4.88,2.64,9.49,7.77,12.34,6.12,3.41,13.48,3.23,18.77-.46,4.89-3.44,10.72-9.17,16.61-16.28.21,1.94.61,3.76,1.21,5.45,2.03,5.66,7.02,10.39,13.71,13,7.49,2.92,15.89,2.76,21.92-.4,13.32-7.05,25.83-24.06,30.72-31.25.08-.06.16-.13.24-.2l.18-.21c6.31-9.12,14.56-21.29,19.48-28.74.32.05.64.1.96.16,2.48.4,5.88.94,6.3,1.86.1.21-.04.65-.39,1.22-.44.8-1.03,1.82-1.72,3.01-5.52,9.57-17.01,29.48-14.8,42.24.71,5.15,4.14,9.36,9.42,11.55,5.55,2.3,11.83,1.74,16.03-1.43,1.02-.78,2.14-1.72,3.32-2.78,3.7,3.92,10.23,5.83,19.92,5.83,14.56,0,31.46-7.31,34.18-23.42.15-1.19.19-2.4.11-3.6,15.19-2.73,28.32-4.13,29.89-3.75l.66.22.53-.45c.95-.79,1.4-1.87,1.21-2.88ZM725.62,547.91c-3.15,7.37-15.94,13.64-24.17,14.52-4.45.42-6.59.04-7.72-.48,4-4.06,16.99-10.28,31.89-14.04ZM705.7,543.91c3.82-5.31,8.2-11.6,13.08-18.79,1.28,4.12,3.08,7.98,4.57,11.18.43.92.84,1.8,1.21,2.63-5.71,1.31-12.58,3.12-18.86,4.98ZM600.53,532.72c8.33-14.69,20.06-26.12,24.08-26.12.25,0,.47.04.66.13.85.47,1.23,1.05,1.23,1.9,0,4.83-11.96,15.78-25.97,24.1ZM474.86,515.4c-.47,1.05-.9,2.01-1.21,2.86-1.36-.67-2.58-.88-3.64-.65-.95.21-1.74.8-2.3,1.73-7.7,13.99-33.89,43.13-39.88,43.13-.1,0-.2,0-.29-.03h0s-.13-.02-.23-.28c-1.25-3.13,3.35-16.64,17.21-35.72,8.85-12.26,24.57-21.72,30.54-21.72.62,0,1.13.1,1.52.31,2.33,1.3-.1,6.76-1.71,10.37ZM382.64,532.72c8.33-14.69,20.06-26.12,24.08-26.12.25,0,.47.04.66.13.85.47,1.23,1.05,1.23,1.9,0,4.83-11.96,15.78-25.97,24.1Z"/>
      <path class="cls-1" d="M836.44,269.22l-327.97-78.07c.02-.25.04-.5.04-.76v-15.27c2.51-.6,4.91-1.44,7.27-2.53,2.39-1.11,4.53-2.6,6.59-4.17,2.08-1.59,3.72-3.47,5.35-5.45,1.2-1.46,2.22-3.02,3.04-4.69,1.12-2.3,2.14-4.63,2.66-7.11,1.07-5.08,1.04-10.28-.48-15.29-1.46-4.8-4.15-9.11-7.7-12.82-1.77-1.84-3.86-3.39-6.02-4.82-2.21-1.46-4.62-2.46-7.12-3.42-1.87-.71-3.81-1.22-5.81-1.51-2.8-.4-5.58-.71-8.4-.49-5.44.42-10.69,1.77-15.39,4.4-4.56,2.55-8.34,6.03-11.27,10.14-1.48,2.08-2.57,4.39-3.5,6.71-.97,2.42-1.37,4.92-1.71,7.48-.13.96-.18,1.93-.19,2.89-.01,2.05.97,4.22,2.53,5.67,1.5,1.39,3.96,2.44,6.11,2.35,4.7-.2,8.62-3.52,8.64-8.01,0-.7.05-1.4.11-2.1.27-1.36.66-2.7,1.18-4,.63-1.22,1.36-2.39,2.2-3.5.94-1.03,1.96-1.98,3.07-2.85,1.19-.78,2.45-1.46,3.77-2.04,1.4-.48,2.83-.84,4.3-1.09,1.52-.12,3.04-.12,4.56,0,1.47.25,2.9.61,4.3,1.09,1.32.58,2.57,1.26,3.77,2.04,1.11.87,2.13,1.82,3.07,2.85.84,1.11,1.57,2.27,2.2,3.5.51,1.3.91,2.63,1.18,3.99.13,1.41.13,2.82,0,4.23-.27,1.36-.66,2.69-1.18,3.99-.63,1.22-1.36,2.39-2.2,3.5-.94,1.03-1.96,1.98-3.07,2.85-1.19.78-2.45,1.46-3.77,2.04-1.4.48-2.84.84-4.31,1.09-.75.06-1.51.1-2.26.11-4.67.02-8.64,3.65-8.64,8.01v21.47l-327.47,77.57c-8.34,1.62-6.65,13.08,1.86,12.57h0c219.09-34.36,442.85-34.31,661.92.14l7,1.1c7.97.48,9.57-10.25,1.76-11.79Z"/>
    </g>
  </g>
</svg>