<?xml version="1.0" encoding="UTF-8"?>
<svg id="Outlines" xmlns="http://www.w3.org/2000/svg" viewBox="0 0 800.68 800.68">
  <defs>
    <style>
      .cls-1 {
        fill: #fff;
      }

      .cls-2 {
        fill: #114c97;
      }

      .cls-3 {
        fill: #19bfd1;
      }
    </style>
  </defs>
  <g id="Variation1">
    <g id="Icon">
      <path class="cls-3" d="M784.12,482.11c-23.45,212.19-214.28,347.59-426.24,302.43C145.93,739.38-6.89,530.76,16.56,318.57,40.01,106.39,230.84-29.02,442.8,16.14c211.95,45.16,364.77,253.78,341.32,465.96Z"/>
      <ellipse class="cls-1" cx="400.34" cy="400.34" rx="349.77" ry="350.15"/>
      <g>
        <path class="cls-2" d="M576.3,553.44l-.9.5-.61.83c-4.55,6.15-28.74,38.26-58.19,66.94-30.01,29.21-54.04,43.55-69.51,41.49-9.2-1.23-16.44-6.65-20.93-15.69-12.01-24.19-2.34-68.29,25.85-117.93,30.61-52.58,72.47-93.37,99.7-97.2,4.18.05,7.52,1.15,9.94,3.28.2.34,2.11,4.6-7.75,22.73-6.55,12.05-15.27,24.64-19.45,30.69l-.91,1.31c-6,8.26-2.2,12.94-.89,14.18,4.02,3.81,11.52,2.81,17.87-2.38,1.07-.89,2.28-1.85,3.6-2.91,9.33-7.43,24.94-19.87,36.97-42.97l.05-.1c3.64-7.4,2.83-15.28-2.34-22.79-10.55-15.33-37.56-25.96-52.85-24.54-14.62,1.25-37.01,14.82-59.9,36.28-18.78,17.62-45.87,48.02-68.26,92.8-29.74,60.47-31.16,103-4.21,126.41,13.19,11.41,32.18,19.81,52.18,19.81,10.75,0,21.79-2.43,32.37-8.11,36.72-19.83,95.58-93.05,102.81-111.31,1.3-3.24.29-6.85-2.63-9.42-2.96-2.61-8.03-4.09-11.99-1.89Z"/>
        <path class="cls-2" d="M235.14,564.37v-243.37h123.56c25.67,0,44.4,6.48,56.16,19.43,11.77,12.96,17.65,27.76,17.65,44.4,0,12.12-3.42,23.09-10.25,32.9-6.84,9.81-17.03,16.55-30.58,20.24,31.5,7.61,47.25,26.51,47.25,56.7,0,18.07-5.56,34.21-16.67,48.41-11.12,14.2-34.86,21.31-71.23,21.31h-115.89ZM303.96,414.25h34.59c8.67,0,14.8-2.2,18.36-6.6,3.57-4.4,5.35-9.09,5.35-14.09,0-13.55-8.32-20.33-24.96-20.33h-33.34v41.01ZM303.96,510.17h36.37c9.03,0,15.66-2.23,19.88-6.69,4.22-4.46,6.33-9.48,6.33-15.07s-2.05-10.73-6.15-15.42c-4.1-4.69-11.62-7.04-22.55-7.04h-33.88v44.22Z"/>
        <path class="cls-3" d="M661.1,292.32l-247.14-87.64c.16-.8.26-1.64.26-2.5v-24.89c4.1-.98,8-2.34,11.85-4.12,3.89-1.8,7.38-4.23,10.73-6.8,3.39-2.59,6.07-5.65,8.72-8.88,1.95-2.37,3.63-4.92,4.96-7.64,1.83-3.74,3.49-7.55,4.34-11.59,1.75-8.27,1.7-16.76-.78-24.91-2.38-7.82-6.76-14.84-12.55-20.89-2.88-3.01-6.3-5.52-9.81-7.85-3.6-2.38-7.53-4.02-11.61-5.57-3.04-1.16-6.21-2-9.46-2.47-4.56-.66-9.09-1.15-13.7-.8-8.87.68-17.42,2.88-25.09,7.17-7.44,4.16-13.59,9.83-18.36,16.53-2.41,3.38-4.18,7.15-5.7,10.94-1.58,3.95-2.24,8.02-2.79,12.19-.21,1.57-.3,3.14-.31,4.72-.02,3.34,1.58,6.88,4.12,9.24,2.44,2.27,6.45,3.97,9.96,3.83,7.66-.32,14.04-5.74,14.08-13.06,0-1.15.08-2.29.19-3.42.44-2.22,1.08-4.4,1.92-6.52,1.03-1.99,2.22-3.89,3.59-5.7,1.53-1.67,3.2-3.22,5-4.64,1.95-1.27,4-2.38,6.14-3.33,2.28-.78,4.62-1.37,7.01-1.78,2.47-.2,4.95-.2,7.43,0,2.39.41,4.73,1,7.01,1.78,2.15.95,4.2,2.06,6.14,3.33,1.8,1.42,3.47,2.97,5,4.64,1.37,1.8,2.56,3.71,3.59,5.7.84,2.11,1.47,4.28,1.91,6.5.21,2.3.21,4.6,0,6.89-.44,2.22-1.08,4.38-1.91,6.5-1.03,1.99-2.22,3.89-3.59,5.7-1.53,1.67-3.2,3.22-5,4.64-1.95,1.27-4,2.38-6.14,3.33-2.29.78-4.63,1.37-7.03,1.78-1.23.1-2.46.17-3.69.17-7.61.03-14.08,5.96-14.08,13.06v36.24c0,.27.03.55.05.83l-246.49,86.98c-6.47,1.88-5.16,15.11,1.44,14.52h0c169.8-39.67,343.23-39.61,513.02.16l5.43,1.27c6.18.56,7.42-11.84,1.36-13.61Z"/>
      </g>
    </g>
  </g>
</svg>